# xmcd
#
# Track frame offsets: 
#        150
#        13978
#        32934
#        45316
#        65314
#        82515
#        99121
#        123193
#        136924
#        155244
#        178606
#        195026
#        208071
#        225093
#        237540
#
# Disc length: 3372 seconds
#
# Revision: 2
# Processed by: cddbd v1.5.2PL0 Copyright (c) Steve Scherf et al.
# Submitted via: ExactAudioCopyFreeDBPlugin 1.0
#
DISCID=b00d2a0f
DTITLE=Chuck Leavell - Back to the Woods
DYEAR=2012
DGENRE=Blues
TTITLE0=No Special Rider
TTITLE1=Evening Train
TTITLE2=Wish Me Well
TTITLE3=Low Down Dirty Dog
TTITLE4=Losing Hand
TTITLE5=Naptown Blues
TTITLE6=Back to the Woods
TTITLE7=I Got to Go Blues
TTITLE8=Boots and Shoes
TTITLE9=Mean Mistreater
TTITLE10=Southern Casey Jones
TTITLE11=If You Haven't Any Hay
TTITLE12=Memphis Town
TTITLE13=The Blues is All Wrong
TTITLE14=Vicksburg Blues
EXTD=
EXTT0=
EXTT1=
EXTT2=
EXTT3=
EXTT4=
EXTT5=
EXTT6=
EXTT7=
EXTT8=
EXTT9=
EXTT10=
EXTT11=
EXTT12=
EXTT13=
EXTT14=
PLAYORDER=
